<svg width="126" height="126" viewBox="0 0 126 126" fill="none" xmlns="http://www.w3.org/2000/svg">
<path fill-rule="evenodd" clip-rule="evenodd" d="M63 0.5C97.5178 0.5 125.5 28.4822 125.5 63C125.5 97.5178 97.5178 125.5 63 125.5C28.4822 125.5 0.5 97.5178 0.5 63C0.5 28.4822 28.4822 0.5 63 0.5ZM63 115.5V88C49.1929 88 38 76.8071 38 63C38 49.1929 49.1929 38 63 38V10.5C34.0051 10.5 10.5 34.0051 10.5 63C10.5 91.9949 34.0051 115.5 63 115.5ZM63 88L63 38C76.8071 38 88 49.1929 88 63C88 76.8071 76.8071 88 63 88Z" fill="#202020"/>
</svg>
